<mxfile host="app.diagrams.net" modified="2023-04-10T13:25:17.174Z" agent="Mozilla/5.0 (Windows NT 10.0; Win64; x64) AppleWebKit/537.36 (KHTML, like Gecko) Chrome/112.0.0.0 Safari/537.36" etag="8vAOdBAv6Qw58fk_p2h9" version="21.1.5" type="device">
  <diagram name="Page-1" id="FXaIAmxQq9gnmO6GGcrJ">
    <mxGraphModel dx="1463" dy="599" grid="1" gridSize="10" guides="1" tooltips="1" connect="1" arrows="1" fold="1" page="0" pageScale="1" pageWidth="850" pageHeight="1100" background="#FFFFFF" math="0" shadow="0">
      <root>
        <mxCell id="0" />
        <mxCell id="1" parent="0" />
        <mxCell id="WY5B-NtZORyX01nTF3CY-31" value="alt" style="shape=umlFrame;whiteSpace=wrap;html=1;pointerEvents=0;" parent="1" vertex="1">
          <mxGeometry x="35" y="140" width="1055" height="725" as="geometry" />
        </mxCell>
        <mxCell id="WY5B-NtZORyX01nTF3CY-1" value=":ExchangeCommand" style="rounded=0;whiteSpace=wrap;html=1;" parent="1" vertex="1">
          <mxGeometry x="140" y="60" width="120" height="40" as="geometry" />
        </mxCell>
        <mxCell id="WY5B-NtZORyX01nTF3CY-2" value=":Ui" style="rounded=0;whiteSpace=wrap;html=1;" parent="1" vertex="1">
          <mxGeometry x="280" y="60" width="120" height="40" as="geometry" />
        </mxCell>
        <mxCell id="WY5B-NtZORyX01nTF3CY-3" value="oldAcc :Account" style="rounded=0;whiteSpace=wrap;html=1;" parent="1" vertex="1">
          <mxGeometry x="720" y="60" width="120" height="40" as="geometry" />
        </mxCell>
        <mxCell id="WY5B-NtZORyX01nTF3CY-4" value=":AccountList" style="rounded=0;whiteSpace=wrap;html=1;" parent="1" vertex="1">
          <mxGeometry x="430" y="60" width="120" height="40" as="geometry" />
        </mxCell>
        <mxCell id="WY5B-NtZORyX01nTF3CY-5" value=":Forex" style="rounded=0;whiteSpace=wrap;html=1;" parent="1" vertex="1">
          <mxGeometry x="580" y="60" width="120" height="40" as="geometry" />
        </mxCell>
        <mxCell id="WY5B-NtZORyX01nTF3CY-8" value="" style="endArrow=none;dashed=1;html=1;rounded=0;entryX=0.5;entryY=1;entryDx=0;entryDy=0;" parent="1" target="WY5B-NtZORyX01nTF3CY-1" edge="1">
          <mxGeometry width="50" height="50" relative="1" as="geometry">
            <mxPoint x="200" y="920" as="sourcePoint" />
            <mxPoint x="440" y="220" as="targetPoint" />
          </mxGeometry>
        </mxCell>
        <mxCell id="WY5B-NtZORyX01nTF3CY-9" value="" style="endArrow=none;dashed=1;html=1;rounded=0;entryX=0.5;entryY=1;entryDx=0;entryDy=0;" parent="1" edge="1">
          <mxGeometry width="50" height="50" relative="1" as="geometry">
            <mxPoint x="340" y="210" as="sourcePoint" />
            <mxPoint x="339.5" y="100" as="targetPoint" />
          </mxGeometry>
        </mxCell>
        <mxCell id="WY5B-NtZORyX01nTF3CY-10" value="" style="endArrow=none;dashed=1;html=1;rounded=0;entryX=0.5;entryY=1;entryDx=0;entryDy=0;" parent="1" edge="1">
          <mxGeometry width="50" height="50" relative="1" as="geometry">
            <mxPoint x="490" y="920" as="sourcePoint" />
            <mxPoint x="489.5" y="100" as="targetPoint" />
          </mxGeometry>
        </mxCell>
        <mxCell id="WY5B-NtZORyX01nTF3CY-11" value="" style="endArrow=none;dashed=1;html=1;rounded=0;entryX=0.5;entryY=1;entryDx=0;entryDy=0;" parent="1" source="WY5B-NtZORyX01nTF3CY-37" edge="1">
          <mxGeometry width="50" height="50" relative="1" as="geometry">
            <mxPoint x="639.5" y="850" as="sourcePoint" />
            <mxPoint x="639.5" y="100" as="targetPoint" />
          </mxGeometry>
        </mxCell>
        <mxCell id="WY5B-NtZORyX01nTF3CY-12" value="" style="endArrow=none;dashed=1;html=1;rounded=0;entryX=0.5;entryY=1;entryDx=0;entryDy=0;" parent="1" edge="1">
          <mxGeometry width="50" height="50" relative="1" as="geometry">
            <mxPoint x="780" y="920" as="sourcePoint" />
            <mxPoint x="779.5" y="100" as="targetPoint" />
          </mxGeometry>
        </mxCell>
        <mxCell id="WY5B-NtZORyX01nTF3CY-13" value="execute(:Ui, :AccountList)" style="html=1;verticalAlign=bottom;startArrow=circle;startFill=1;endArrow=open;startSize=6;endSize=8;edgeStyle=elbowEdgeStyle;elbow=vertical;curved=0;rounded=0;" parent="1" target="WY5B-NtZORyX01nTF3CY-14" edge="1">
          <mxGeometry x="0.1991" y="10" width="80" relative="1" as="geometry">
            <mxPoint y="130" as="sourcePoint" />
            <mxPoint x="180" y="130" as="targetPoint" />
            <mxPoint as="offset" />
            <Array as="points">
              <mxPoint x="20" y="130" />
              <mxPoint y="130" />
            </Array>
          </mxGeometry>
        </mxCell>
        <mxCell id="WY5B-NtZORyX01nTF3CY-15" value="" style="endArrow=none;dashed=1;html=1;rounded=0;entryX=0.5;entryY=1;entryDx=0;entryDy=0;" parent="1" edge="1">
          <mxGeometry width="50" height="50" relative="1" as="geometry">
            <mxPoint x="200" y="846" as="sourcePoint" />
            <mxPoint x="200" y="836" as="targetPoint" />
          </mxGeometry>
        </mxCell>
        <mxCell id="WY5B-NtZORyX01nTF3CY-14" value="" style="html=1;points=[];perimeter=orthogonalPerimeter;outlineConnect=0;targetShapes=umlLifeline;portConstraint=eastwest;newEdgeStyle={&quot;edgeStyle&quot;:&quot;elbowEdgeStyle&quot;,&quot;elbow&quot;:&quot;vertical&quot;,&quot;curved&quot;:0,&quot;rounded&quot;:0};" parent="1" vertex="1">
          <mxGeometry x="195" y="130" width="10" height="750" as="geometry" />
        </mxCell>
        <mxCell id="WY5B-NtZORyX01nTF3CY-29" value="[else]" style="text;html=1;align=center;verticalAlign=middle;resizable=0;points=[];autosize=1;strokeColor=none;fillColor=none;" parent="1" vertex="1">
          <mxGeometry x="50" y="235" width="50" height="30" as="geometry" />
        </mxCell>
        <mxCell id="WY5B-NtZORyX01nTF3CY-33" value="" style="html=1;points=[];perimeter=orthogonalPerimeter;outlineConnect=0;targetShapes=umlLifeline;portConstraint=eastwest;newEdgeStyle={&quot;edgeStyle&quot;:&quot;elbowEdgeStyle&quot;,&quot;elbow&quot;:&quot;vertical&quot;,&quot;curved&quot;:0,&quot;rounded&quot;:0};" parent="1" vertex="1">
          <mxGeometry x="200" y="235" width="10" height="50" as="geometry" />
        </mxCell>
        <mxCell id="WY5B-NtZORyX01nTF3CY-34" value="" style="endArrow=classic;html=1;rounded=0;" parent="1" target="WY5B-NtZORyX01nTF3CY-33" edge="1">
          <mxGeometry width="50" height="50" relative="1" as="geometry">
            <mxPoint x="205" y="215" as="sourcePoint" />
            <mxPoint x="240" y="265" as="targetPoint" />
            <Array as="points">
              <mxPoint x="240" y="215" />
              <mxPoint x="240" y="235" />
            </Array>
          </mxGeometry>
        </mxCell>
        <mxCell id="WY5B-NtZORyX01nTF3CY-35" value=":Forex" style="rounded=0;whiteSpace=wrap;html=1;" parent="1" vertex="1">
          <mxGeometry x="600" y="235" width="80" height="20" as="geometry" />
        </mxCell>
        <mxCell id="WY5B-NtZORyX01nTF3CY-36" value="" style="endArrow=classic;html=1;rounded=0;entryX=0;entryY=0.5;entryDx=0;entryDy=0;" parent="1" source="WY5B-NtZORyX01nTF3CY-33" target="WY5B-NtZORyX01nTF3CY-35" edge="1">
          <mxGeometry width="50" height="50" relative="1" as="geometry">
            <mxPoint x="80" y="325" as="sourcePoint" />
            <mxPoint x="600" y="235" as="targetPoint" />
            <Array as="points">
              <mxPoint x="400" y="245" />
            </Array>
          </mxGeometry>
        </mxCell>
        <mxCell id="WY5B-NtZORyX01nTF3CY-38" value="" style="endArrow=none;dashed=1;html=1;rounded=0;entryX=0.5;entryY=1;entryDx=0;entryDy=0;" parent="1" source="WY5B-NtZORyX01nTF3CY-56" target="WY5B-NtZORyX01nTF3CY-37" edge="1">
          <mxGeometry width="50" height="50" relative="1" as="geometry">
            <mxPoint x="639.5" y="805" as="sourcePoint" />
            <mxPoint x="639.5" y="55" as="targetPoint" />
          </mxGeometry>
        </mxCell>
        <mxCell id="WY5B-NtZORyX01nTF3CY-37" value="" style="html=1;points=[];perimeter=orthogonalPerimeter;outlineConnect=0;targetShapes=umlLifeline;portConstraint=eastwest;newEdgeStyle={&quot;edgeStyle&quot;:&quot;elbowEdgeStyle&quot;,&quot;elbow&quot;:&quot;vertical&quot;,&quot;curved&quot;:0,&quot;rounded&quot;:0};" parent="1" vertex="1">
          <mxGeometry x="635" y="255" width="10" height="20" as="geometry" />
        </mxCell>
        <mxCell id="WY5B-NtZORyX01nTF3CY-39" value="" style="html=1;verticalAlign=bottom;endArrow=open;dashed=1;endSize=8;edgeStyle=elbowEdgeStyle;elbow=vertical;curved=0;rounded=0;" parent="1" target="WY5B-NtZORyX01nTF3CY-33" edge="1">
          <mxGeometry x="-0.004" relative="1" as="geometry">
            <mxPoint x="505" y="275" as="targetPoint" />
            <mxPoint x="635" y="275" as="sourcePoint" />
            <Array as="points">
              <mxPoint x="590" y="275" />
              <mxPoint x="550" y="285" />
            </Array>
            <mxPoint as="offset" />
          </mxGeometry>
        </mxCell>
        <mxCell id="WY5B-NtZORyX01nTF3CY-40" value="formatInput()" style="text;html=1;align=center;verticalAlign=middle;resizable=0;points=[];autosize=1;strokeColor=none;fillColor=none;" parent="1" vertex="1">
          <mxGeometry x="240" y="210" width="90" height="30" as="geometry" />
        </mxCell>
        <mxCell id="WY5B-NtZORyX01nTF3CY-44" value="" style="endArrow=classic;html=1;rounded=0;dashed=1;" parent="1" edge="1">
          <mxGeometry width="50" height="50" relative="1" as="geometry">
            <mxPoint x="210" y="285" as="sourcePoint" />
            <mxPoint x="205" y="305" as="targetPoint" />
            <Array as="points">
              <mxPoint x="245" y="285" />
              <mxPoint x="245" y="305" />
            </Array>
          </mxGeometry>
        </mxCell>
        <mxCell id="WY5B-NtZORyX01nTF3CY-46" value="" style="html=1;points=[];perimeter=orthogonalPerimeter;outlineConnect=0;targetShapes=umlLifeline;portConstraint=eastwest;newEdgeStyle={&quot;edgeStyle&quot;:&quot;elbowEdgeStyle&quot;,&quot;elbow&quot;:&quot;vertical&quot;,&quot;curved&quot;:0,&quot;rounded&quot;:0};" parent="1" vertex="1">
          <mxGeometry x="200" y="335" width="10" height="20" as="geometry" />
        </mxCell>
        <mxCell id="WY5B-NtZORyX01nTF3CY-47" value="" style="endArrow=classic;html=1;rounded=0;" parent="1" edge="1">
          <mxGeometry width="50" height="50" relative="1" as="geometry">
            <mxPoint x="205" y="315" as="sourcePoint" />
            <mxPoint x="210" y="335" as="targetPoint" />
            <Array as="points">
              <mxPoint x="240" y="315" />
              <mxPoint x="240" y="335" />
            </Array>
          </mxGeometry>
        </mxCell>
        <mxCell id="WY5B-NtZORyX01nTF3CY-49" value="" style="endArrow=classic;html=1;rounded=0;dashed=1;" parent="1" edge="1">
          <mxGeometry width="50" height="50" relative="1" as="geometry">
            <mxPoint x="210" y="355" as="sourcePoint" />
            <mxPoint x="205" y="375" as="targetPoint" />
            <Array as="points">
              <mxPoint x="245" y="355" />
              <mxPoint x="245" y="375" />
            </Array>
          </mxGeometry>
        </mxCell>
        <mxCell id="WY5B-NtZORyX01nTF3CY-50" value="parseAmount()" style="text;html=1;align=center;verticalAlign=middle;resizable=0;points=[];autosize=1;strokeColor=none;fillColor=none;" parent="1" vertex="1">
          <mxGeometry x="235" y="305" width="100" height="30" as="geometry" />
        </mxCell>
        <mxCell id="WY5B-NtZORyX01nTF3CY-53" value="" style="html=1;points=[];perimeter=orthogonalPerimeter;outlineConnect=0;targetShapes=umlLifeline;portConstraint=eastwest;newEdgeStyle={&quot;edgeStyle&quot;:&quot;elbowEdgeStyle&quot;,&quot;elbow&quot;:&quot;vertical&quot;,&quot;curved&quot;:0,&quot;rounded&quot;:0};" parent="1" vertex="1">
          <mxGeometry x="485" y="385" width="10" height="50" as="geometry" />
        </mxCell>
        <mxCell id="WY5B-NtZORyX01nTF3CY-54" value="" style="endArrow=classic;html=1;rounded=0;" parent="1" target="WY5B-NtZORyX01nTF3CY-53" edge="1">
          <mxGeometry width="50" height="50" relative="1" as="geometry">
            <mxPoint x="205" y="385" as="sourcePoint" />
            <mxPoint x="480" y="385" as="targetPoint" />
            <Array as="points">
              <mxPoint x="280" y="385" />
            </Array>
          </mxGeometry>
        </mxCell>
        <mxCell id="WY5B-NtZORyX01nTF3CY-55" value="" style="html=1;verticalAlign=bottom;endArrow=open;dashed=1;endSize=8;edgeStyle=elbowEdgeStyle;elbow=vertical;curved=0;rounded=0;" parent="1" edge="1">
          <mxGeometry x="-0.004" relative="1" as="geometry">
            <mxPoint x="205" y="435" as="targetPoint" />
            <mxPoint x="485" y="435" as="sourcePoint" />
            <Array as="points">
              <mxPoint x="440" y="435" />
              <mxPoint x="400" y="445" />
            </Array>
            <mxPoint as="offset" />
          </mxGeometry>
        </mxCell>
        <mxCell id="WY5B-NtZORyX01nTF3CY-57" value="" style="endArrow=none;dashed=1;html=1;rounded=0;entryX=0.5;entryY=1;entryDx=0;entryDy=0;" parent="1" source="WY5B-NtZORyX01nTF3CY-64" target="WY5B-NtZORyX01nTF3CY-56" edge="1">
          <mxGeometry width="50" height="50" relative="1" as="geometry">
            <mxPoint x="639.5" y="805" as="sourcePoint" />
            <mxPoint x="640" y="275" as="targetPoint" />
          </mxGeometry>
        </mxCell>
        <mxCell id="WY5B-NtZORyX01nTF3CY-56" value="" style="html=1;points=[];perimeter=orthogonalPerimeter;outlineConnect=0;targetShapes=umlLifeline;portConstraint=eastwest;newEdgeStyle={&quot;edgeStyle&quot;:&quot;elbowEdgeStyle&quot;,&quot;elbow&quot;:&quot;vertical&quot;,&quot;curved&quot;:0,&quot;rounded&quot;:0};" parent="1" vertex="1">
          <mxGeometry x="635" y="390" width="10" height="40" as="geometry" />
        </mxCell>
        <mxCell id="WY5B-NtZORyX01nTF3CY-58" value="" style="endArrow=classic;html=1;rounded=0;" parent="1" target="WY5B-NtZORyX01nTF3CY-56" edge="1">
          <mxGeometry width="50" height="50" relative="1" as="geometry">
            <mxPoint x="495" y="390" as="sourcePoint" />
            <mxPoint x="775" y="390" as="targetPoint" />
            <Array as="points">
              <mxPoint x="570" y="390" />
            </Array>
          </mxGeometry>
        </mxCell>
        <mxCell id="WY5B-NtZORyX01nTF3CY-59" value="" style="html=1;verticalAlign=bottom;endArrow=open;dashed=1;endSize=8;edgeStyle=elbowEdgeStyle;elbow=vertical;curved=0;rounded=0;" parent="1" source="WY5B-NtZORyX01nTF3CY-56" edge="1">
          <mxGeometry x="-0.004" relative="1" as="geometry">
            <mxPoint x="495" y="430" as="targetPoint" />
            <mxPoint x="775" y="430" as="sourcePoint" />
            <Array as="points">
              <mxPoint x="630" y="430" />
              <mxPoint x="690" y="440" />
            </Array>
            <mxPoint as="offset" />
          </mxGeometry>
        </mxCell>
        <mxCell id="WY5B-NtZORyX01nTF3CY-60" value="" style="endArrow=classic;html=1;rounded=0;" parent="1" edge="1">
          <mxGeometry width="50" height="50" relative="1" as="geometry">
            <mxPoint x="205" y="465.00000000000006" as="sourcePoint" />
            <mxPoint x="485" y="465.00000000000006" as="targetPoint" />
            <Array as="points">
              <mxPoint x="280" y="465.00000000000006" />
            </Array>
          </mxGeometry>
        </mxCell>
        <mxCell id="WY5B-NtZORyX01nTF3CY-61" value="" style="html=1;points=[];perimeter=orthogonalPerimeter;outlineConnect=0;targetShapes=umlLifeline;portConstraint=eastwest;newEdgeStyle={&quot;edgeStyle&quot;:&quot;elbowEdgeStyle&quot;,&quot;elbow&quot;:&quot;vertical&quot;,&quot;curved&quot;:0,&quot;rounded&quot;:0};" parent="1" vertex="1">
          <mxGeometry x="485" y="465" width="10" height="50" as="geometry" />
        </mxCell>
        <mxCell id="WY5B-NtZORyX01nTF3CY-62" value="" style="html=1;verticalAlign=bottom;endArrow=open;dashed=1;endSize=8;edgeStyle=elbowEdgeStyle;elbow=vertical;curved=0;rounded=0;" parent="1" edge="1">
          <mxGeometry x="-0.004" relative="1" as="geometry">
            <mxPoint x="205" y="515" as="targetPoint" />
            <mxPoint x="485" y="515" as="sourcePoint" />
            <Array as="points">
              <mxPoint x="440" y="515" />
              <mxPoint x="400" y="525" />
            </Array>
            <mxPoint as="offset" />
          </mxGeometry>
        </mxCell>
        <mxCell id="WY5B-NtZORyX01nTF3CY-63" value="" style="endArrow=classic;html=1;rounded=0;" parent="1" edge="1">
          <mxGeometry width="50" height="50" relative="1" as="geometry">
            <mxPoint x="495" y="474.86" as="sourcePoint" />
            <mxPoint x="635" y="474.86" as="targetPoint" />
            <Array as="points">
              <mxPoint x="570" y="474.86" />
            </Array>
          </mxGeometry>
        </mxCell>
        <mxCell id="WY5B-NtZORyX01nTF3CY-65" value="" style="endArrow=none;dashed=1;html=1;rounded=0;entryX=0.5;entryY=1;entryDx=0;entryDy=0;" parent="1" source="WY5B-NtZORyX01nTF3CY-75" target="WY5B-NtZORyX01nTF3CY-64" edge="1">
          <mxGeometry width="50" height="50" relative="1" as="geometry">
            <mxPoint x="639.5" y="805" as="sourcePoint" />
            <mxPoint x="640" y="430" as="targetPoint" />
          </mxGeometry>
        </mxCell>
        <mxCell id="WY5B-NtZORyX01nTF3CY-64" value="" style="html=1;points=[];perimeter=orthogonalPerimeter;outlineConnect=0;targetShapes=umlLifeline;portConstraint=eastwest;newEdgeStyle={&quot;edgeStyle&quot;:&quot;elbowEdgeStyle&quot;,&quot;elbow&quot;:&quot;vertical&quot;,&quot;curved&quot;:0,&quot;rounded&quot;:0};" parent="1" vertex="1">
          <mxGeometry x="635" y="475" width="10" height="30" as="geometry" />
        </mxCell>
        <mxCell id="WY5B-NtZORyX01nTF3CY-66" value="" style="html=1;verticalAlign=bottom;endArrow=open;dashed=1;endSize=8;edgeStyle=elbowEdgeStyle;elbow=vertical;curved=0;rounded=0;" parent="1" edge="1">
          <mxGeometry x="-0.004" relative="1" as="geometry">
            <mxPoint x="495" y="505" as="targetPoint" />
            <mxPoint x="635" y="505" as="sourcePoint" />
            <Array as="points">
              <mxPoint x="630" y="505" />
              <mxPoint x="690" y="515" />
            </Array>
            <mxPoint as="offset" />
          </mxGeometry>
        </mxCell>
        <mxCell id="WY5B-NtZORyX01nTF3CY-68" value="oldAcc :Account" style="text;html=1;align=center;verticalAlign=middle;resizable=0;points=[];autosize=1;strokeColor=none;fillColor=none;" parent="1" vertex="1">
          <mxGeometry x="238" y="410" width="110" height="30" as="geometry" />
        </mxCell>
        <mxCell id="WY5B-NtZORyX01nTF3CY-69" value="getAccount(currency: Currency)" style="text;html=1;align=center;verticalAlign=middle;resizable=0;points=[];autosize=1;strokeColor=none;fillColor=none;" parent="1" vertex="1">
          <mxGeometry x="260" y="435" width="190" height="30" as="geometry" />
        </mxCell>
        <mxCell id="WY5B-NtZORyX01nTF3CY-70" value="newAcc :Account" style="text;html=1;align=center;verticalAlign=middle;resizable=0;points=[];autosize=1;strokeColor=none;fillColor=none;" parent="1" vertex="1">
          <mxGeometry x="229" y="490" width="120" height="30" as="geometry" />
        </mxCell>
        <mxCell id="WY5B-NtZORyX01nTF3CY-71" value="getInitial()" style="text;html=1;align=center;verticalAlign=middle;resizable=0;points=[];autosize=1;strokeColor=none;fillColor=none;" parent="1" vertex="1">
          <mxGeometry x="520" y="360" width="80" height="30" as="geometry" />
        </mxCell>
        <mxCell id="WY5B-NtZORyX01nTF3CY-72" value="getTarget()" style="text;html=1;align=center;verticalAlign=middle;resizable=0;points=[];autosize=1;strokeColor=none;fillColor=none;" parent="1" vertex="1">
          <mxGeometry x="530" y="445" width="80" height="30" as="geometry" />
        </mxCell>
        <mxCell id="WY5B-NtZORyX01nTF3CY-73" value=":Currency" style="text;html=1;align=center;verticalAlign=middle;resizable=0;points=[];autosize=1;strokeColor=none;fillColor=none;" parent="1" vertex="1">
          <mxGeometry x="510" y="405" width="80" height="30" as="geometry" />
        </mxCell>
        <mxCell id="WY5B-NtZORyX01nTF3CY-74" value=":Currency" style="text;html=1;align=center;verticalAlign=middle;resizable=0;points=[];autosize=1;strokeColor=none;fillColor=none;" parent="1" vertex="1">
          <mxGeometry x="510" y="475" width="80" height="30" as="geometry" />
        </mxCell>
        <mxCell id="WY5B-NtZORyX01nTF3CY-76" value="" style="endArrow=none;dashed=1;html=1;rounded=0;entryX=0.5;entryY=1;entryDx=0;entryDy=0;" parent="1" target="WY5B-NtZORyX01nTF3CY-75" edge="1">
          <mxGeometry width="50" height="50" relative="1" as="geometry">
            <mxPoint x="640" y="920" as="sourcePoint" />
            <mxPoint x="640" y="505" as="targetPoint" />
          </mxGeometry>
        </mxCell>
        <mxCell id="WY5B-NtZORyX01nTF3CY-75" value="" style="html=1;points=[];perimeter=orthogonalPerimeter;outlineConnect=0;targetShapes=umlLifeline;portConstraint=eastwest;newEdgeStyle={&quot;edgeStyle&quot;:&quot;elbowEdgeStyle&quot;,&quot;elbow&quot;:&quot;vertical&quot;,&quot;curved&quot;:0,&quot;rounded&quot;:0};" parent="1" vertex="1">
          <mxGeometry x="635" y="535" width="10" height="30" as="geometry" />
        </mxCell>
        <mxCell id="WY5B-NtZORyX01nTF3CY-78" value="" style="endArrow=classic;html=1;rounded=0;" parent="1" target="WY5B-NtZORyX01nTF3CY-75" edge="1">
          <mxGeometry width="50" height="50" relative="1" as="geometry">
            <mxPoint x="205" y="535" as="sourcePoint" />
            <mxPoint x="630" y="535" as="targetPoint" />
            <Array as="points">
              <mxPoint x="425" y="535" />
            </Array>
          </mxGeometry>
        </mxCell>
        <mxCell id="WY5B-NtZORyX01nTF3CY-82" value="" style="html=1;verticalAlign=bottom;endArrow=open;dashed=1;endSize=8;edgeStyle=elbowEdgeStyle;elbow=vertical;curved=0;rounded=0;" parent="1" edge="1">
          <mxGeometry x="-0.004" relative="1" as="geometry">
            <mxPoint x="205" y="565" as="targetPoint" />
            <mxPoint x="635" y="565" as="sourcePoint" />
            <Array as="points">
              <mxPoint x="590" y="565" />
              <mxPoint x="550" y="575" />
            </Array>
            <mxPoint as="offset" />
          </mxGeometry>
        </mxCell>
        <mxCell id="WY5B-NtZORyX01nTF3CY-83" value=":BigDecimal" style="text;html=1;align=center;verticalAlign=middle;resizable=0;points=[];autosize=1;strokeColor=none;fillColor=none;" parent="1" vertex="1">
          <mxGeometry x="335" y="540" width="90" height="30" as="geometry" />
        </mxCell>
        <mxCell id="WY5B-NtZORyX01nTF3CY-84" value="" style="html=1;points=[];perimeter=orthogonalPerimeter;outlineConnect=0;targetShapes=umlLifeline;portConstraint=eastwest;newEdgeStyle={&quot;edgeStyle&quot;:&quot;elbowEdgeStyle&quot;,&quot;elbow&quot;:&quot;vertical&quot;,&quot;curved&quot;:0,&quot;rounded&quot;:0};" parent="1" vertex="1">
          <mxGeometry x="775" y="585" width="10" height="20" as="geometry" />
        </mxCell>
        <mxCell id="WY5B-NtZORyX01nTF3CY-86" value="" style="endArrow=classic;html=1;rounded=0;" parent="1" target="WY5B-NtZORyX01nTF3CY-84" edge="1">
          <mxGeometry width="50" height="50" relative="1" as="geometry">
            <mxPoint x="205" y="585" as="sourcePoint" />
            <mxPoint x="635" y="595" as="targetPoint" />
            <Array as="points">
              <mxPoint x="230" y="585" />
              <mxPoint x="610" y="585" />
            </Array>
          </mxGeometry>
        </mxCell>
        <mxCell id="WY5B-NtZORyX01nTF3CY-88" value="" style="html=1;verticalAlign=bottom;endArrow=open;dashed=1;endSize=8;edgeStyle=elbowEdgeStyle;elbow=vertical;curved=0;rounded=0;" parent="1" edge="1">
          <mxGeometry x="-0.004" relative="1" as="geometry">
            <mxPoint x="205" y="605" as="targetPoint" />
            <mxPoint x="775" y="605" as="sourcePoint" />
            <Array as="points">
              <mxPoint x="680" y="605" />
              <mxPoint x="730" y="615" />
              <mxPoint x="690" y="625" />
            </Array>
            <mxPoint as="offset" />
          </mxGeometry>
        </mxCell>
        <mxCell id="WY5B-NtZORyX01nTF3CY-91" value="" style="endArrow=classic;html=1;rounded=0;" parent="1" target="WY5B-NtZORyX01nTF3CY-92" edge="1">
          <mxGeometry width="50" height="50" relative="1" as="geometry">
            <mxPoint x="205" y="625" as="sourcePoint" />
            <mxPoint x="775" y="625" as="targetPoint" />
            <Array as="points">
              <mxPoint x="230" y="625" />
              <mxPoint x="610" y="625" />
            </Array>
          </mxGeometry>
        </mxCell>
        <mxCell id="WY5B-NtZORyX01nTF3CY-93" value="" style="html=1;verticalAlign=bottom;endArrow=open;dashed=1;endSize=8;edgeStyle=elbowEdgeStyle;elbow=vertical;curved=0;rounded=0;" parent="1" source="WY5B-NtZORyX01nTF3CY-92" edge="1">
          <mxGeometry x="-0.004" relative="1" as="geometry">
            <mxPoint x="205" y="645" as="targetPoint" />
            <mxPoint x="775" y="645" as="sourcePoint" />
            <Array as="points">
              <mxPoint x="680" y="645" />
              <mxPoint x="730" y="655" />
              <mxPoint x="690" y="665" />
            </Array>
            <mxPoint as="offset" />
          </mxGeometry>
        </mxCell>
        <mxCell id="WY5B-NtZORyX01nTF3CY-98" value="" style="endArrow=classic;html=1;rounded=0;" parent="1" target="WY5B-NtZORyX01nTF3CY-99" edge="1">
          <mxGeometry width="50" height="50" relative="1" as="geometry">
            <mxPoint x="205" y="665" as="sourcePoint" />
            <mxPoint x="300" y="665" as="targetPoint" />
            <Array as="points">
              <mxPoint x="280" y="665" />
            </Array>
          </mxGeometry>
        </mxCell>
        <mxCell id="WY5B-NtZORyX01nTF3CY-101" value="printMessage(:Forex)" style="text;html=1;align=center;verticalAlign=middle;resizable=0;points=[];autosize=1;strokeColor=none;fillColor=none;" parent="1" vertex="1">
          <mxGeometry x="210" y="640" width="140" height="30" as="geometry" />
        </mxCell>
        <mxCell id="WY5B-NtZORyX01nTF3CY-102" value="" style="endArrow=classic;html=1;rounded=0;" parent="1" target="WY5B-NtZORyX01nTF3CY-103" edge="1">
          <mxGeometry width="50" height="50" relative="1" as="geometry">
            <mxPoint x="345" y="670" as="sourcePoint" />
            <mxPoint x="625" y="670" as="targetPoint" />
            <Array as="points">
              <mxPoint x="420" y="670" />
            </Array>
          </mxGeometry>
        </mxCell>
        <mxCell id="WY5B-NtZORyX01nTF3CY-103" value="" style="html=1;points=[];perimeter=orthogonalPerimeter;outlineConnect=0;targetShapes=umlLifeline;portConstraint=eastwest;newEdgeStyle={&quot;edgeStyle&quot;:&quot;elbowEdgeStyle&quot;,&quot;elbow&quot;:&quot;vertical&quot;,&quot;curved&quot;:0,&quot;rounded&quot;:0};" parent="1" vertex="1">
          <mxGeometry x="635" y="670" width="10" height="25" as="geometry" />
        </mxCell>
        <mxCell id="WY5B-NtZORyX01nTF3CY-104" value="" style="html=1;verticalAlign=bottom;endArrow=open;dashed=1;endSize=8;edgeStyle=elbowEdgeStyle;elbow=vertical;curved=0;rounded=0;" parent="1" edge="1">
          <mxGeometry x="-0.004" relative="1" as="geometry">
            <mxPoint x="345" y="695" as="targetPoint" />
            <mxPoint x="640" y="695" as="sourcePoint" />
            <Array as="points">
              <mxPoint x="545" y="695.2" />
              <mxPoint x="595" y="705.2" />
              <mxPoint x="555" y="715.2" />
            </Array>
            <mxPoint as="offset" />
          </mxGeometry>
        </mxCell>
        <mxCell id="WY5B-NtZORyX01nTF3CY-105" value="" style="html=1;verticalAlign=bottom;endArrow=open;dashed=1;endSize=8;edgeStyle=elbowEdgeStyle;elbow=vertical;curved=0;rounded=0;" parent="1" edge="1">
          <mxGeometry x="-0.004" relative="1" as="geometry">
            <mxPoint x="205" y="705" as="targetPoint" />
            <mxPoint x="330" y="705.2" as="sourcePoint" />
            <Array as="points">
              <mxPoint x="235" y="705.2" />
              <mxPoint x="285" y="715.2" />
              <mxPoint x="245" y="725.2" />
            </Array>
            <mxPoint as="offset" />
          </mxGeometry>
        </mxCell>
        <mxCell id="WY5B-NtZORyX01nTF3CY-109" value="toString()" style="text;html=1;align=center;verticalAlign=middle;resizable=0;points=[];autosize=1;strokeColor=none;fillColor=none;" parent="1" vertex="1">
          <mxGeometry x="490" y="645" width="70" height="30" as="geometry" />
        </mxCell>
        <mxCell id="WY5B-NtZORyX01nTF3CY-110" value=":String" style="text;html=1;align=center;verticalAlign=middle;resizable=0;points=[];autosize=1;strokeColor=none;fillColor=none;" parent="1" vertex="1">
          <mxGeometry x="480" y="670" width="60" height="30" as="geometry" />
        </mxCell>
        <mxCell id="WY5B-NtZORyX01nTF3CY-112" value="" style="endArrow=classic;html=1;rounded=0;" parent="1" edge="1">
          <mxGeometry width="50" height="50" relative="1" as="geometry">
            <mxPoint x="205" y="725" as="sourcePoint" />
            <mxPoint x="335" y="725" as="targetPoint" />
            <Array as="points">
              <mxPoint x="280" y="725" />
            </Array>
          </mxGeometry>
        </mxCell>
        <mxCell id="WY5B-NtZORyX01nTF3CY-113" value="" style="html=1;verticalAlign=bottom;endArrow=open;dashed=1;endSize=8;edgeStyle=elbowEdgeStyle;elbow=vertical;curved=0;rounded=0;" parent="1" edge="1">
          <mxGeometry x="-0.004" relative="1" as="geometry">
            <mxPoint x="205" y="765" as="targetPoint" />
            <mxPoint x="330" y="765.2" as="sourcePoint" />
            <Array as="points">
              <mxPoint x="235" y="765.2" />
              <mxPoint x="285" y="775.2" />
              <mxPoint x="245" y="785.2" />
            </Array>
            <mxPoint as="offset" />
          </mxGeometry>
        </mxCell>
        <mxCell id="WY5B-NtZORyX01nTF3CY-114" value="" style="html=1;points=[];perimeter=orthogonalPerimeter;outlineConnect=0;targetShapes=umlLifeline;portConstraint=eastwest;newEdgeStyle={&quot;edgeStyle&quot;:&quot;elbowEdgeStyle&quot;,&quot;elbow&quot;:&quot;vertical&quot;,&quot;curved&quot;:0,&quot;rounded&quot;:0};" parent="1" vertex="1">
          <mxGeometry x="775" y="732.5" width="10" height="25" as="geometry" />
        </mxCell>
        <mxCell id="WY5B-NtZORyX01nTF3CY-115" value="" style="endArrow=classic;html=1;rounded=0;" parent="1" source="WY5B-NtZORyX01nTF3CY-111" edge="1">
          <mxGeometry width="50" height="50" relative="1" as="geometry">
            <mxPoint x="485" y="732.5" as="sourcePoint" />
            <mxPoint x="775" y="732.5" as="targetPoint" />
            <Array as="points">
              <mxPoint x="560" y="732.5" />
            </Array>
          </mxGeometry>
        </mxCell>
        <mxCell id="WY5B-NtZORyX01nTF3CY-116" value="" style="html=1;verticalAlign=bottom;endArrow=open;dashed=1;endSize=8;edgeStyle=elbowEdgeStyle;elbow=vertical;curved=0;rounded=0;" parent="1" source="WY5B-NtZORyX01nTF3CY-114" edge="1">
          <mxGeometry x="-0.004" relative="1" as="geometry">
            <mxPoint x="342.5" y="757.5" as="targetPoint" />
            <mxPoint x="637.5" y="757.5" as="sourcePoint" />
            <Array as="points">
              <mxPoint x="542.5" y="757.7" />
              <mxPoint x="592.5" y="767.7" />
              <mxPoint x="552.5" y="777.7" />
            </Array>
            <mxPoint as="offset" />
          </mxGeometry>
        </mxCell>
        <mxCell id="WY5B-NtZORyX01nTF3CY-117" value="printMessage(:Account)" style="text;html=1;align=center;verticalAlign=middle;resizable=0;points=[];autosize=1;strokeColor=none;fillColor=none;" parent="1" vertex="1">
          <mxGeometry x="195" y="700" width="150" height="30" as="geometry" />
        </mxCell>
        <mxCell id="WY5B-NtZORyX01nTF3CY-118" value="toString()" style="text;html=1;align=center;verticalAlign=middle;resizable=0;points=[];autosize=1;strokeColor=none;fillColor=none;" parent="1" vertex="1">
          <mxGeometry x="490" y="705" width="70" height="30" as="geometry" />
        </mxCell>
        <mxCell id="WY5B-NtZORyX01nTF3CY-119" value=":String" style="text;html=1;align=center;verticalAlign=middle;resizable=0;points=[];autosize=1;strokeColor=none;fillColor=none;" parent="1" vertex="1">
          <mxGeometry x="480" y="730" width="60" height="30" as="geometry" />
        </mxCell>
        <mxCell id="WY5B-NtZORyX01nTF3CY-122" value="[Exception]" style="text;html=1;align=center;verticalAlign=middle;resizable=0;points=[];autosize=1;strokeColor=none;fillColor=none;" parent="1" vertex="1">
          <mxGeometry x="70" y="170" width="80" height="30" as="geometry" />
        </mxCell>
        <mxCell id="WY5B-NtZORyX01nTF3CY-140" value="" style="html=1;verticalAlign=bottom;endArrow=open;dashed=1;endSize=8;edgeStyle=elbowEdgeStyle;elbow=vertical;curved=0;rounded=0;" parent="1" edge="1">
          <mxGeometry x="-0.004" relative="1" as="geometry">
            <mxPoint y="880" as="targetPoint" />
            <mxPoint x="195" y="880" as="sourcePoint" />
            <Array as="points">
              <mxPoint x="150" y="880" />
              <mxPoint x="110" y="890" />
            </Array>
            <mxPoint as="offset" />
          </mxGeometry>
        </mxCell>
        <mxCell id="BgJPe9l6IFSEXAnNe0KZ-3" value=":TransactionManager" style="rounded=0;whiteSpace=wrap;html=1;" parent="1" vertex="1">
          <mxGeometry x="983" y="60" width="130" height="40" as="geometry" />
        </mxCell>
        <mxCell id="BgJPe9l6IFSEXAnNe0KZ-4" value="" style="endArrow=none;dashed=1;html=1;rounded=0;entryX=0.511;entryY=0.988;entryDx=0;entryDy=0;entryPerimeter=0;" parent="1" target="BgJPe9l6IFSEXAnNe0KZ-3" edge="1">
          <mxGeometry width="50" height="50" relative="1" as="geometry">
            <mxPoint x="1050" y="940" as="sourcePoint" />
            <mxPoint x="1054.38" y="100" as="targetPoint" />
          </mxGeometry>
        </mxCell>
        <mxCell id="BgJPe9l6IFSEXAnNe0KZ-5" value="addTransaction(initialCurrency:Currency, description:String, false:boolean,&lt;br style=&quot;border-color: var(--border-color);&quot;&gt;&amp;nbsp; &amp;nbsp; &amp;nbsp; &amp;nbsp; &amp;nbsp; &amp;nbsp; &amp;nbsp; &amp;nbsp; &amp;nbsp; &amp;nbsp; &amp;nbsp; &amp;nbsp; &amp;nbsp; &amp;nbsp; &amp;nbsp; &amp;nbsp; &amp;nbsp;changeInBalance:BigDecimal, initialAccBalanceAfterTransaction:BigDecimal)" style="html=1;verticalAlign=bottom;endArrow=block;edgeStyle=elbowEdgeStyle;elbow=vertical;curved=0;rounded=0;" parent="1" edge="1">
          <mxGeometry x="0.1604" relative="1" as="geometry">
            <mxPoint x="205" y="805" as="sourcePoint" />
            <Array as="points">
              <mxPoint x="696" y="805" />
            </Array>
            <mxPoint x="1045" y="805" as="targetPoint" />
            <mxPoint as="offset" />
          </mxGeometry>
        </mxCell>
        <mxCell id="BgJPe9l6IFSEXAnNe0KZ-7" value="addTransaction(targetCurrency:Currency, description:String, true:boolean,&lt;br style=&quot;border-color: var(--border-color);&quot;&gt;&amp;nbsp; &amp;nbsp; &amp;nbsp; &amp;nbsp; &amp;nbsp; &amp;nbsp; &amp;nbsp; &amp;nbsp; &amp;nbsp; &amp;nbsp; &amp;nbsp; &amp;nbsp; &amp;nbsp; &amp;nbsp; &amp;nbsp; &amp;nbsp; &amp;nbsp;changeInBalance:BigDecimal, targetAccbalanceAfterTransaction:BigDecimal)" style="html=1;verticalAlign=bottom;endArrow=block;edgeStyle=elbowEdgeStyle;elbow=vertical;curved=0;rounded=0;" parent="1" edge="1">
          <mxGeometry x="0.1604" relative="1" as="geometry">
            <mxPoint x="205" y="845" as="sourcePoint" />
            <Array as="points">
              <mxPoint x="915" y="845" />
            </Array>
            <mxPoint x="1045" y="845" as="targetPoint" />
            <mxPoint as="offset" />
          </mxGeometry>
        </mxCell>
        <mxCell id="T2shqHozpNhg-Uq60oxh-7" value="" style="html=1;points=[];perimeter=orthogonalPerimeter;outlineConnect=0;targetShapes=umlLifeline;portConstraint=eastwest;newEdgeStyle={&quot;edgeStyle&quot;:&quot;elbowEdgeStyle&quot;,&quot;elbow&quot;:&quot;vertical&quot;,&quot;curved&quot;:0,&quot;rounded&quot;:0};" parent="1" vertex="1">
          <mxGeometry x="1045" y="805" width="10" height="10" as="geometry" />
        </mxCell>
        <mxCell id="T2shqHozpNhg-Uq60oxh-9" value="" style="html=1;points=[];perimeter=orthogonalPerimeter;outlineConnect=0;targetShapes=umlLifeline;portConstraint=eastwest;newEdgeStyle={&quot;edgeStyle&quot;:&quot;elbowEdgeStyle&quot;,&quot;elbow&quot;:&quot;vertical&quot;,&quot;curved&quot;:0,&quot;rounded&quot;:0};" parent="1" vertex="1">
          <mxGeometry x="1045" y="845" width="10" height="10" as="geometry" />
        </mxCell>
        <mxCell id="7fjx8Oyfq5WUcZ0noLen-1" value="" style="endArrow=none;dashed=1;html=1;strokeWidth=1;rounded=0;exitX=0.001;exitY=0.147;exitDx=0;exitDy=0;exitPerimeter=0;entryX=1.001;entryY=0.08;entryDx=0;entryDy=0;entryPerimeter=0;" parent="1" target="WY5B-NtZORyX01nTF3CY-31" edge="1">
          <mxGeometry width="50" height="50" relative="1" as="geometry">
            <mxPoint x="31" y="200" as="sourcePoint" />
            <mxPoint x="700" y="200" as="targetPoint" />
          </mxGeometry>
        </mxCell>
        <mxCell id="7fjx8Oyfq5WUcZ0noLen-3" value="printMessage(:String)" style="html=1;verticalAlign=bottom;endArrow=block;edgeStyle=elbowEdgeStyle;elbow=vertical;curved=0;rounded=0;" parent="1" target="7fjx8Oyfq5WUcZ0noLen-2" edge="1">
          <mxGeometry relative="1" as="geometry">
            <mxPoint x="204" y="160" as="sourcePoint" />
            <Array as="points">
              <mxPoint x="246" y="160" />
              <mxPoint x="356" y="180" />
              <mxPoint x="496" y="160" />
            </Array>
          </mxGeometry>
        </mxCell>
        <mxCell id="WY5B-NtZORyX01nTF3CY-41" value="Forex(initial: Currency, target: Currency)" style="text;html=1;align=center;verticalAlign=middle;resizable=1;points=[];autosize=1;fillColor=default;movable=1;rotatable=1;deletable=1;editable=1;locked=0;connectable=1;" parent="1" vertex="1">
          <mxGeometry x="340" y="230" width="240" height="10" as="geometry" />
        </mxCell>
        <mxCell id="WY5B-NtZORyX01nTF3CY-67" value="getAccount(currency: Currency)" style="text;html=1;align=center;verticalAlign=middle;resizable=1;points=[];autosize=1;strokeColor=none;fillColor=default;movable=1;rotatable=1;deletable=1;editable=1;locked=0;connectable=1;" parent="1" vertex="1">
          <mxGeometry x="295" y="367.5" width="190" height="15" as="geometry" />
        </mxCell>
        <mxCell id="WY5B-NtZORyX01nTF3CY-52" value="exchangeRate:Forex" style="text;html=1;align=center;verticalAlign=middle;resizable=0;points=[];autosize=1;strokeColor=none;fillColor=default;" parent="1" vertex="1">
          <mxGeometry x="247" y="282" width="130" height="30" as="geometry" />
        </mxCell>
        <mxCell id="WY5B-NtZORyX01nTF3CY-51" value="amount:BigDecimal" style="text;html=1;align=center;verticalAlign=middle;resizable=0;points=[];autosize=1;strokeColor=none;fillColor=default;" parent="1" vertex="1">
          <mxGeometry x="247" y="337.5" width="130" height="30" as="geometry" />
        </mxCell>
        <mxCell id="WY5B-NtZORyX01nTF3CY-80" value="convert(amount: BigDecimal)" style="text;html=1;align=center;verticalAlign=middle;resizable=1;points=[];autosize=1;strokeColor=none;fillColor=default;movable=1;rotatable=1;deletable=1;editable=1;locked=0;connectable=1;" parent="1" vertex="1">
          <mxGeometry x="330" y="520" width="180" height="10" as="geometry" />
        </mxCell>
        <mxCell id="WY5B-NtZORyX01nTF3CY-90" value=".updateBalance(amount: BigDecimal, action: String)" style="text;html=1;align=center;verticalAlign=middle;resizable=1;points=[];autosize=1;strokeColor=none;fillColor=default;movable=1;rotatable=1;deletable=1;editable=1;locked=0;connectable=1;" parent="1" vertex="1">
          <mxGeometry x="255" y="572" width="300" height="8" as="geometry" />
        </mxCell>
        <mxCell id="WY5B-NtZORyX01nTF3CY-97" value=".updateBalance(amount: BigDecimal, action: String)" style="text;html=1;align=center;verticalAlign=middle;resizable=1;points=[];autosize=1;strokeColor=none;fillColor=default;movable=1;rotatable=1;deletable=1;editable=1;locked=0;connectable=1;" parent="1" vertex="1">
          <mxGeometry x="271" y="612" width="300" height="9" as="geometry" />
        </mxCell>
        <mxCell id="7fjx8Oyfq5WUcZ0noLen-6" value="newAcc :Account" style="rounded=0;whiteSpace=wrap;html=1;" parent="1" vertex="1">
          <mxGeometry x="851" y="60" width="120" height="40" as="geometry" />
        </mxCell>
        <mxCell id="7fjx8Oyfq5WUcZ0noLen-7" value="" style="endArrow=none;dashed=1;html=1;rounded=0;entryX=0.5;entryY=1;entryDx=0;entryDy=0;" parent="1" edge="1">
          <mxGeometry width="50" height="50" relative="1" as="geometry">
            <mxPoint x="911" y="880" as="sourcePoint" />
            <mxPoint x="910.5" y="100" as="targetPoint" />
          </mxGeometry>
        </mxCell>
        <mxCell id="WY5B-NtZORyX01nTF3CY-92" value="" style="html=1;points=[];perimeter=orthogonalPerimeter;outlineConnect=0;targetShapes=umlLifeline;portConstraint=eastwest;newEdgeStyle={&quot;edgeStyle&quot;:&quot;elbowEdgeStyle&quot;,&quot;elbow&quot;:&quot;vertical&quot;,&quot;curved&quot;:0,&quot;rounded&quot;:0};" parent="1" vertex="1">
          <mxGeometry x="906" y="625" width="10" height="20" as="geometry" />
        </mxCell>
        <mxCell id="WY5B-NtZORyX01nTF3CY-124" value="" style="endArrow=none;dashed=1;html=1;rounded=0;entryX=0.5;entryY=1;entryDx=0;entryDy=0;" parent="1" edge="1">
          <mxGeometry width="50" height="50" relative="1" as="geometry">
            <mxPoint x="339.83" y="925" as="sourcePoint" />
            <mxPoint x="340" y="160" as="targetPoint" />
          </mxGeometry>
        </mxCell>
        <mxCell id="WY5B-NtZORyX01nTF3CY-99" value="" style="html=1;points=[];perimeter=orthogonalPerimeter;outlineConnect=0;targetShapes=umlLifeline;portConstraint=eastwest;newEdgeStyle={&quot;edgeStyle&quot;:&quot;elbowEdgeStyle&quot;,&quot;elbow&quot;:&quot;vertical&quot;,&quot;curved&quot;:0,&quot;rounded&quot;:0};fillStyle=auto;textOpacity=0;" parent="1" vertex="1">
          <mxGeometry x="335" y="665" width="10" height="40" as="geometry" />
        </mxCell>
        <mxCell id="WY5B-NtZORyX01nTF3CY-111" value="" style="html=1;points=[];perimeter=orthogonalPerimeter;outlineConnect=0;targetShapes=umlLifeline;portConstraint=eastwest;newEdgeStyle={&quot;edgeStyle&quot;:&quot;elbowEdgeStyle&quot;,&quot;elbow&quot;:&quot;vertical&quot;,&quot;curved&quot;:0,&quot;rounded&quot;:0};" parent="1" vertex="1">
          <mxGeometry x="335" y="725" width="10" height="40" as="geometry" />
        </mxCell>
        <mxCell id="7fjx8Oyfq5WUcZ0noLen-2" value="" style="html=1;points=[];perimeter=orthogonalPerimeter;outlineConnect=0;targetShapes=umlLifeline;portConstraint=eastwest;newEdgeStyle={&quot;edgeStyle&quot;:&quot;elbowEdgeStyle&quot;,&quot;elbow&quot;:&quot;vertical&quot;,&quot;curved&quot;:0,&quot;rounded&quot;:0};" parent="1" vertex="1">
          <mxGeometry x="335" y="160" width="10" height="20" as="geometry" />
        </mxCell>
      </root>
    </mxGraphModel>
  </diagram>
</mxfile>
